<svg xmlns="http://www.w3.org/2000/svg" width="571.417" height="480.089" viewBox="0 0 571.417 480.089">
  <g id="blog" transform="translate(-205.328 -25.764)">
    <rect id="Retângulo_706" data-name="Retângulo 706" width="497.541" height="377.752" transform="translate(205.97 25.764)" fill="#fff"/>
    <rect id="Retângulo_707" data-name="Retângulo 707" width="497.541" height="57.523" transform="translate(205.97 25.764)" fill="#2b2d42"/>
    <rect id="Retângulo_708" data-name="Retângulo 708" width="497.915" height="20.451" transform="translate(205.963 83.371)" fill="#8d99ae" opacity="0.23"/>
    <rect id="Retângulo_709" data-name="Retângulo 709" width="40.116" height="1.711" transform="translate(547.346 103.466)" fill="#ef243c"/>
    <circle id="Elipse_235" data-name="Elipse 235" cx="6.901" cy="6.901" r="6.901" transform="translate(227.318 50.671)" fill="#fff"/>
    <circle id="Elipse_236" data-name="Elipse 236" cx="6.901" cy="6.901" r="6.901" transform="translate(253.33 50.671)" fill="#fff"/>
    <circle id="Elipse_237" data-name="Elipse 237" cx="6.901" cy="6.901" r="6.901" transform="translate(279.341 50.671)" fill="#fff"/>
    <rect id="Retângulo_710" data-name="Retângulo 710" width="126.227" height="139.946" transform="translate(230.657 154.345)" fill="#8d99ae" opacity="0.23"/>
    <path id="Caminho_1509" data-name="Caminho 1509" d="M363.62,189.229V329.175H237.393" transform="translate(-6.736 -34.884)" fill="none" stroke="#231f20" stroke-miterlimit="10" stroke-width="1"/>
    <path id="Caminho_1510" data-name="Caminho 1510" d="M564.687,189.229V329.175H438.46" transform="translate(-49.645 -34.884)" fill="none" stroke="#231f20" stroke-miterlimit="10" stroke-width="1"/>
    <rect id="Retângulo_711" data-name="Retângulo 711" width="126.227" height="139.946" transform="translate(546.974 154.345)" fill="#8d99ae" opacity="0.23"/>
    <path id="Caminho_1511" data-name="Caminho 1511" d="M765.754,189.229V329.175H639.527" transform="translate(-92.553 -34.884)" fill="none" stroke="#231f20" stroke-miterlimit="10" stroke-width="1"/>
    <rect id="Retângulo_712" data-name="Retângulo 712" width="121.822" height="9.475" transform="translate(234.814 325.266)" fill="#8d99ae"/>
    <rect id="Retângulo_713" data-name="Retângulo 713" width="121.822" height="9.475" transform="translate(235.1 351.481)" fill="#8d99ae"/>
    <rect id="Retângulo_714" data-name="Retângulo 714" width="60.911" height="8.528" transform="translate(235.386 377.696)" fill="#ef243c"/>
    <rect id="Retângulo_715" data-name="Retângulo 715" width="121.822" height="9.475" transform="translate(390.952 325.266)" fill="#8d99ae"/>
    <rect id="Retângulo_716" data-name="Retângulo 716" width="121.822" height="9.475" transform="translate(391.238 351.481)" fill="#8d99ae"/>
    <rect id="Retângulo_717" data-name="Retângulo 717" width="60.911" height="8.528" transform="translate(391.524 377.696)" fill="#ef243c"/>
    <rect id="Retângulo_718" data-name="Retângulo 718" width="121.822" height="9.475" transform="translate(547.876 325.266)" fill="#8d99ae"/>
    <rect id="Retângulo_719" data-name="Retângulo 719" width="121.822" height="9.475" transform="translate(547.376 351.481)" fill="#8d99ae"/>
    <rect id="Retângulo_720" data-name="Retângulo 720" width="60.911" height="8.528" transform="translate(547.662 377.696)" fill="#ef243c"/>
    <rect id="Retângulo_721" data-name="Retângulo 721" width="126.227" height="139.946" transform="translate(387.746 153.453)" fill="#8d99ae" opacity="0.23"/>
    <path id="Caminho_1512" data-name="Caminho 1512" d="M205.828,26V403.566H702.305" transform="translate(0 -0.05)" fill="none" stroke="#231f20" stroke-miterlimit="10" stroke-width="1"/>
    <rect id="Retângulo_722" data-name="Retângulo 722" width="9.009" height="9.016" transform="translate(263.06 198.214)" fill="#edf2f4"/>
    <line id="Linha_174" data-name="Linha 174" y1="9.016" transform="translate(263.06 198.214)" fill="none" stroke="#231f20" stroke-miterlimit="10" stroke-width="1"/>
    <rect id="Retângulo_723" data-name="Retângulo 723" width="15.676" height="10.895" transform="translate(259.721 206.729)" fill="#edf2f4"/>
    <path id="Caminho_1513" data-name="Caminho 1513" d="M274.342,266.721V255.826h15.676" transform="translate(-14.621 -49.096)" fill="none" stroke="#231f20" stroke-miterlimit="10" stroke-width="1"/>
    <rect id="Retângulo_724" data-name="Retângulo 724" width="25.046" height="62.865" transform="translate(255.036 213.868)" fill="#edf2f4"/>
    <path id="Caminho_1514" data-name="Caminho 1514" d="M335.564,331.413h-14.4V285.328l14.4-3.632Z" transform="translate(-24.613 -54.617)" fill="#edf2f4"/>
    <path id="Caminho_1515" data-name="Caminho 1515" d="M334.215,291.413h-10.7V279.46l10.7-2.7Z" transform="translate(-25.115 -53.564)" fill="#edf2f4"/>
    <rect id="Retângulo_725" data-name="Retângulo 725" width="8.641" height="28.803" transform="translate(309.072 247.993)" fill="#edf2f4"/>
    <rect id="Retângulo_726" data-name="Retângulo 726" width="11.772" height="38.32" transform="translate(283.15 238.475)" fill="#edf2f4"/>
    <rect id="Retângulo_727" data-name="Retângulo 727" width="16.655" height="40.95" transform="translate(317.713 235.845)" fill="#edf2f4"/>
    <rect id="Retângulo_728" data-name="Retângulo 728" width="8.14" height="10.895" transform="translate(322.096 233.09)" fill="#edf2f4"/>
    <path id="Caminho_1516" data-name="Caminho 1516" d="M374.116,337.086H357.461v-28.8l16.655,6.637Z" transform="translate(-32.359 -60.291)" fill="#edf2f4"/>
    <path id="Caminho_1517" data-name="Caminho 1517" d="M350.674,323.939v4.133h-3.131V317.3h-6.637V303.527h-4.633v6.944l-10.77,5.2v9.016h-3.256v-5.948l-9.517-13.587H290.814l-9.142,14.527v2.379h-2.63V307.409h-5.26v14.652h-2.63V286l-14.527,14.151v25.3H252.87v-8.015h-5.26v14.652h9.016v.125h11.02v.125h54.6V332.2h33.311v-8.265Z" transform="translate(-8.916 -55.535)" fill="#8d99ae"/>
    <path id="Caminho_1518" data-name="Caminho 1518" d="M268.386,300.779V264.9h25.046" transform="translate(-13.35 -51.033)" fill="none" stroke="#231f20" stroke-miterlimit="10" stroke-width="1"/>
    <line id="Linha_175" data-name="Linha 175" x2="118.968" transform="translate(234.311 276.874)" fill="none" stroke="#231f20" stroke-miterlimit="10" stroke-width="1"/>
    <line id="Linha_176" data-name="Linha 176" y2="11.333" transform="translate(283.15 238.475)" fill="none" stroke="#231f20" stroke-miterlimit="10" stroke-width="1"/>
    <line id="Linha_177" data-name="Linha 177" y2="7.639" transform="translate(298.428 225.952)" fill="none" stroke="#231f20" stroke-miterlimit="10" stroke-width="1"/>
    <line id="Linha_178" data-name="Linha 178" y2="20.162" transform="translate(317.651 235.783)" fill="none" stroke="#231f20" stroke-miterlimit="10" stroke-width="1"/>
    <line id="Linha_179" data-name="Linha 179" x2="18.033" transform="translate(263.051 220.254)" fill="none" stroke="#fff" stroke-miterlimit="10" stroke-width="1"/>
    <line id="Linha_180" data-name="Linha 180" x2="18.033" transform="translate(263.113 224.011)" fill="none" stroke="#fff" stroke-miterlimit="10" stroke-width="1"/>
    <line id="Linha_181" data-name="Linha 181" x2="18.033" transform="translate(263.176 227.768)" fill="none" stroke="#fff" stroke-miterlimit="10" stroke-width="1"/>
    <line id="Linha_182" data-name="Linha 182" x2="18.033" transform="translate(263.238 231.525)" fill="none" stroke="#fff" stroke-miterlimit="10" stroke-width="1"/>
    <line id="Linha_183" data-name="Linha 183" x2="18.033" transform="translate(263.301 235.282)" fill="none" stroke="#fff" stroke-miterlimit="10" stroke-width="1"/>
    <line id="Linha_184" data-name="Linha 184" x2="18.033" transform="translate(263.364 239.039)" fill="none" stroke="#fff" stroke-miterlimit="10" stroke-width="1"/>
    <line id="Linha_185" data-name="Linha 185" x2="18.033" transform="translate(263.426 242.796)" fill="none" stroke="#fff" stroke-miterlimit="10" stroke-width="1"/>
    <line id="Linha_186" data-name="Linha 186" x2="18.033" transform="translate(263.489 246.552)" fill="none" stroke="#fff" stroke-miterlimit="10" stroke-width="1"/>
    <line id="Linha_187" data-name="Linha 187" x2="18.033" transform="translate(263.552 250.309)" fill="none" stroke="#fff" stroke-miterlimit="10" stroke-width="1"/>
    <rect id="Retângulo_729" data-name="Retângulo 729" width="2.379" height="2.505" transform="translate(278.83 263.333)" fill="#edf2f4"/>
    <rect id="Retângulo_730" data-name="Retângulo 730" width="2.379" height="2.505" transform="translate(286.782 263.396)" fill="#edf2f4"/>
    <rect id="Retângulo_731" data-name="Retângulo 731" width="2.379" height="2.505" transform="translate(294.734 263.458)" fill="#edf2f4"/>
    <rect id="Retângulo_732" data-name="Retângulo 732" width="2.379" height="2.505" transform="translate(302.686 263.521)" fill="#edf2f4"/>
    <rect id="Retângulo_733" data-name="Retângulo 733" width="2.379" height="2.505" transform="translate(320.218 262.268)" fill="#edf2f4"/>
    <rect id="Retângulo_734" data-name="Retângulo 734" width="2.379" height="2.505" transform="translate(257.353 244.611)" fill="#edf2f4"/>
    <rect id="Retângulo_735" data-name="Retângulo 735" width="2.379" height="2.505" transform="translate(251.217 256.383)" fill="#edf2f4"/>
    <path id="Caminho_1519" data-name="Caminho 1519" d="M460.088,309.885l-3.566-3.581,31.1-30.965,23.433,23.433L555.826,254l3.574,3.574-48.345,48.345-23.441-23.441Z" transform="translate(-53.499 -48.707)" fill="#edf2f4"/>
    <line id="Linha_188" data-name="Linha 188" x1="27.525" y2="27.407" transform="translate(406.589 233.771)" fill="none" stroke="#000" stroke-miterlimit="10" stroke-width="1"/>
    <line id="Linha_189" data-name="Linha 189" x1="48.345" y2="48.345" transform="translate(457.555 208.867)" fill="none" stroke="#000" stroke-miterlimit="10" stroke-width="1"/>
    <line id="Linha_190" data-name="Linha 190" x2="23.433" y2="23.433" transform="translate(434.122 226.632)" fill="none" stroke="#000" stroke-miterlimit="10" stroke-width="1"/>
    <circle id="Elipse_238" data-name="Elipse 238" cx="8.212" cy="8.212" r="8.212" transform="translate(427.295 223.126)" fill="#8d99ae"/>
    <path id="Caminho_1520" data-name="Caminho 1520" d="M497.82,276.671a8.212,8.212,0,1,1,0,16.425" transform="translate(-62.312 -53.545)" fill="none" stroke="#000" stroke-miterlimit="10" stroke-width="1"/>
    <circle id="Elipse_239" data-name="Elipse 239" cx="8.212" cy="8.212" r="8.212" transform="translate(471.769 221.863)" fill="#ef243c"/>
    <path id="Caminho_1521" data-name="Caminho 1521" d="M554.36,275.065a8.212,8.212,0,0,1,0,16.425" transform="translate(-74.378 -53.202)" fill="none" stroke="#000" stroke-miterlimit="10" stroke-width="1"/>
    <rect id="Retângulo_736" data-name="Retângulo 736" width="12.712" height="91.703" transform="translate(664.452 285.258) rotate(-179.947)" fill="#edf2f4"/>
    <rect id="Retângulo_737" data-name="Retângulo 737" width="12.712" height="62.468" transform="translate(644.895 285.24) rotate(-179.947)" fill="#8d99ae"/>
    <rect id="Retângulo_738" data-name="Retângulo 738" width="12.712" height="77.494" transform="translate(625.337 285.222) rotate(-179.947)" fill="#edf2f4"/>
    <rect id="Retângulo_739" data-name="Retângulo 739" width="12.712" height="45.864" transform="translate(605.78 285.204) rotate(-179.947)" fill="#8d99ae"/>
    <rect id="Retângulo_740" data-name="Retângulo 740" width="12.712" height="69.544" transform="translate(586.222 285.186) rotate(-179.947)" fill="#edf2f4"/>
    <rect id="Retângulo_741" data-name="Retângulo 741" width="12.712" height="22.932" transform="translate(566.665 285.168) rotate(-179.947)" fill="#8d99ae"/>
    <rect id="Retângulo_742" data-name="Retângulo 742" width="176.618" height="323.065" rx="38.667" transform="translate(593.825 176.485)" fill="#fff" stroke="#231f20" stroke-miterlimit="10" stroke-width="1"/>
    <g id="Grupo_347" data-name="Grupo 347" transform="translate(588.023 170.683)">
      <path id="Caminho_1522" data-name="Caminho 1522" d="M856.185,544.67H715.464a23.777,23.777,0,0,1-23.75-23.75V233.75A23.777,23.777,0,0,1,715.464,210H856.185a23.777,23.777,0,0,1,23.75,23.75V520.919A23.777,23.777,0,0,1,856.185,544.67ZM715.464,221.6a12.159,12.159,0,0,0-12.147,12.146V520.919a12.16,12.16,0,0,0,12.147,12.146H856.185a12.16,12.16,0,0,0,12.146-12.146V233.75A12.159,12.159,0,0,0,856.185,221.6Z" transform="translate(-691.713 -210)" fill="#2b2d42"/>
    </g>
    <g id="Grupo_348" data-name="Grupo 348" transform="translate(611.773 182.288)">
      <path id="Caminho_1523" data-name="Caminho 1523" d="M886.379,236.9V524.067a23.777,23.777,0,0,1-23.75,23.75H721.907m0-11.6H862.628a12.16,12.16,0,0,0,12.146-12.146V236.9a12.159,12.159,0,0,0-12.146-12.146" transform="translate(-721.907 -224.753)" fill="none" stroke="#231f20" stroke-miterlimit="10" stroke-width="1"/>
    </g>
    <rect id="Retângulo_743" data-name="Retângulo 743" width="60.11" height="20.192" rx="10.096" transform="translate(653.239 176.485)" fill="#2b2d42"/>
    <ellipse id="Elipse_240" data-name="Elipse 240" cx="6.327" cy="1.286" rx="6.327" ry="1.286" transform="translate(730.682 239.157)" fill="#8d99ae" stroke="#edf2f4" stroke-miterlimit="10" stroke-width="1"/>
    <path id="Caminho_1524" data-name="Caminho 1524" d="M887.118,270.173a12.586,12.586,0,1,0-20.091,1.3l10.632,14.049Z" transform="translate(-140.457 -48.002)" fill="#d80232"/>
    <path id="Caminho_1525" data-name="Caminho 1525" d="M881.073,285.518l9.46-15.345A12.587,12.587,0,0,0,880,250.7" transform="translate(-143.871 -48.002)" fill="none" stroke="#000" stroke-miterlimit="10" stroke-width="1"/>
    <circle id="Elipse_241" data-name="Elipse 241" cx="7.276" cy="7.276" r="7.276" transform="translate(728.853 208.899)" fill="#ef243c"/>
    <path id="Caminho_1526" data-name="Caminho 1526" d="M880,258.584a7.276,7.276,0,0,1,0,14.551" transform="translate(-143.871 -49.685)" fill="none" stroke="#000" stroke-miterlimit="10" stroke-width="1"/>
    <circle id="Elipse_242" data-name="Elipse 242" cx="3.191" cy="3.191" r="3.191" transform="translate(732.938 212.983)" fill="#fff"/>
    <path id="Caminho_1527" data-name="Caminho 1527" d="M882.257,264.965A3.191,3.191,0,0,1,880,270.412" transform="translate(-143.871 -51.047)" fill="none" stroke="#000" stroke-miterlimit="10" stroke-width="1"/>
    <rect id="Retângulo_744" data-name="Retângulo 744" width="61.227" height="67.881" transform="translate(613.132 257.915)" fill="#8d99ae" opacity="0.23"/>
    <path id="Caminho_1528" data-name="Caminho 1528" d="M784.861,332.9V400.78H723.634" transform="translate(-110.502 -65.544)" fill="none" stroke="#231f20" stroke-miterlimit="10" stroke-width="1"/>
    <path id="Caminho_1529" data-name="Caminho 1529" d="M882.389,332.9V400.78H821.162" transform="translate(-131.315 -65.544)" fill="none" stroke="#231f20" stroke-miterlimit="10" stroke-width="1"/>
    <rect id="Retângulo_745" data-name="Retângulo 745" width="59.09" height="4.596" transform="translate(615.148 340.821)" fill="#8d99ae"/>
    <rect id="Retângulo_746" data-name="Retângulo 746" width="59.09" height="4.596" transform="translate(615.287 353.537)" fill="#8d99ae"/>
    <rect id="Retângulo_747" data-name="Retângulo 747" width="29.545" height="4.136" transform="translate(615.425 366.253)" fill="#ef243c"/>
    <rect id="Retângulo_748" data-name="Retângulo 748" width="59.09" height="4.596" transform="translate(690.883 340.821)" fill="#8d99ae"/>
    <rect id="Retângulo_749" data-name="Retângulo 749" width="59.09" height="4.596" transform="translate(691.022 353.537)" fill="#8d99ae"/>
    <rect id="Retângulo_750" data-name="Retângulo 750" width="29.545" height="4.136" transform="translate(691.161 366.253)" fill="#ef243c"/>
    <rect id="Retângulo_751" data-name="Retângulo 751" width="61.227" height="67.881" transform="translate(689.328 257.482)" fill="#8d99ae" opacity="0.23"/>
    <rect id="Retângulo_752" data-name="Retângulo 752" width="61.227" height="67.881" transform="translate(612.833 387.929)" fill="#8d99ae" opacity="0.23"/>
    <path id="Caminho_1530" data-name="Caminho 1530" d="M784.481,498.185v67.881H723.254" transform="translate(-110.421 -100.817)" fill="none" stroke="#231f20" stroke-miterlimit="10" stroke-width="1"/>
    <path id="Caminho_1531" data-name="Caminho 1531" d="M882.009,498.185v67.881H820.782" transform="translate(-131.234 -100.817)" fill="none" stroke="#231f20" stroke-miterlimit="10" stroke-width="1"/>
    <rect id="Retângulo_753" data-name="Retângulo 753" width="59.09" height="4.596" transform="translate(614.849 470.835)" fill="#8d99ae"/>
    <rect id="Retângulo_754" data-name="Retângulo 754" width="59.09" height="4.596" transform="translate(690.585 470.835)" fill="#8d99ae"/>
    <rect id="Retângulo_755" data-name="Retângulo 755" width="61.227" height="67.881" transform="translate(689.03 387.496)" fill="#8d99ae" opacity="0.23"/>
  </g>
</svg>
