<svg id="Componente_13_2" data-name="Componente 13 – 2" xmlns="http://www.w3.org/2000/svg" width="356.533" height="120.366" viewBox="0 0 356.533 120.366">
  <path id="Caminho_198" data-name="Caminho 198" d="M892.846,322.321c-8.637,0-13.914-4.942-13.914-17.944s5.47-18.184,13.914-18.184c8.587,0,13.961,4.988,13.961,18.087,0,12.715-5.182,18.041-13.961,18.041m0-32.1c-5.71,0-8.877,2.831-8.877,14.057,0,11.37,3.455,14.011,8.877,14.011,5.373,0,8.924-2.447,8.924-14.011,0-11.226-3.31-14.057-8.924-14.057" transform="translate(-735.159 -242.067)" fill="#2b2d42"/>
  <path id="Caminho_199" data-name="Caminho 199" d="M1075.052,369.011a16.119,16.119,0,0,1-6.333-1.2v11.272h-4.271V343.054h4.271v1.967h.287c3.264-1.824,5.278-2.447,7.245-2.447,5.519,0,8.781,3.263,8.781,12.956,0,9.786-4.557,13.481-9.979,13.481m.095-22.693c-1.63,0-3.262.526-6.428,2.159V364.5a17.563,17.563,0,0,0,5.374.91c3.6,0,6.381-1.822,6.381-9.978,0-7.294-2.015-9.115-5.327-9.115" transform="translate(-888.788 -288.757)" fill="#2b2d42"/>
  <path id="Caminho_200" data-name="Caminho 200" d="M1215.486,369.011c-7.341,0-10.7-4.126-10.7-12.618,0-9.549,3.79-13.819,10.364-13.819,5.613,0,9.067,3.118,9.067,9.789,0,.816-.143,4.126-.143,4.126-4.943.1-9.788.191-14.777.336,0,6.524,1.918,8.346,6.188,8.346,1.056,0,2.5-.1,7.39-1.63l.766,3.79c-4.221,1.246-6.427,1.68-8.156,1.68m4.559-17.321c0-4.078-1.823-5.949-4.99-5.949-3.5,0-5.565,1.967-5.709,8.2,3.55-.1,10.651-.191,10.651-.191.048-.864.048-1.776.048-2.063" transform="translate(-1005.005 -288.757)" fill="#2b2d42"/>
  <path id="Caminho_201" data-name="Caminho 201" d="M1358.932,368.531V349.387c0-2.016-.479-2.83-3.167-2.83a17.8,17.8,0,0,0-7.771,2.015v19.958h-4.271V343.054h4.271v2.207h.335c4.605-2.207,6.332-2.687,8.971-2.687,3.6,0,5.9,1.392,5.9,5.662v20.295Z" transform="translate(-1120.059 -288.757)" fill="#2b2d42"/>
  <path id="Caminho_202" data-name="Caminho 202" d="M1513.062,324.153l-13.721-24.71a21.409,21.409,0,0,1-1.632-3.839h-.288c.1,1.248.191,2.5.191,3.839v24.71h-4.461V288.985h5.325l13.435,24.131a22.12,22.12,0,0,1,1.63,3.7h.288c-.1-1.247-.143-2.544-.143-3.7V288.985h4.366v35.168Z" transform="translate(-1243.804 -244.379)" fill="#2b2d42"/>
  <path id="Caminho_203" data-name="Caminho 203" d="M1670.957,369.011c-6.669,0-10.892-3.7-10.892-13.194,0-9.739,4.414-13.242,10.939-13.242,6.141,0,10.844,3.167,10.844,13.242,0,9.451-4.221,13.194-10.891,13.194m0-22.886c-3.983,0-6.334,1.822-6.334,9.691,0,7.63,2.16,9.645,6.334,9.645,4.125,0,6.333-1.969,6.333-9.645,0-8.108-2.543-9.691-6.333-9.691" transform="translate(-1382.028 -288.757)" fill="#2b2d42"/>
  <path id="Caminho_204" data-name="Caminho 204" d="M1821.169,347.277a6.361,6.361,0,0,0-1.776-.336c-1.918,0-3.07.527-5.66,2.3v19.287h-4.271V343.055h4.271v2.687h.287c3.359-2.733,4.605-3.167,6.141-3.167a7.539,7.539,0,0,1,1.535.24Z" transform="translate(-1505.746 -288.758)" fill="#2b2d42"/>
  <path id="Caminho_205" data-name="Caminho 205" d="M1899.831,340.579c-3.5,0-4.942-1.68-4.942-5.47V318.366h-3.551v-3.744h3.551v-5.565l4.27-.816v6.381h7.39v3.744h-7.39v16.695c0,1.1.481,1.489,1.489,1.489.767,0,1.87-.1,5.8-1.775l.816,3.79c-4.606,1.87-6,2.015-7.437,2.015" transform="translate(-1573.549 -260.325)" fill="#2b2d42"/>
  <path id="Caminho_206" data-name="Caminho 206" d="M2018.628,313.751V294.607c0-2.016-.48-2.83-3.167-2.83a17.953,17.953,0,0,0-7.771,2.015v19.958h-4.271v-36.7l4.271-.624v14.057h.334c4.8-2.351,6.67-2.687,8.972-2.687,3.744,0,5.9,1.536,5.9,5.662v20.295Z" transform="translate(-1666.364 -233.977)" fill="#2b2d42"/>
  <path id="Caminho_207" data-name="Caminho 207" d="M280.831,29.473a69.532,69.532,0,0,0-5.864,12.771,69.5,69.5,0,0,0-3.181,18.078c-.21,4.8.506,5.91.114,7.618a9.839,9.839,0,0,1-2.34,3.313,10.431,10.431,0,0,0-1.842,2.077c-.643-.755-1.443-1.692-2.32-2.646s-1.806-1.928-2.8-2.919-2-1.95-3.045-2.881-2.029-1.765-2.979-2.5A19.19,19.19,0,0,0,254,60.653a7.845,7.845,0,0,0-2.258-1.033c.445-.947,1.693-.886,2.5-1.589a24.507,24.507,0,0,1,2.505-2.455,2.14,2.14,0,0,1,1.986.332c1.61.989,7.129,6.114,8.254,8.6-1.039-2.292,1.145-13.236,4.92-21.85a48.441,48.441,0,0,1,8.924-13.187" transform="translate(-215.775 -29.473)" fill="#d80232"/>
  <path id="Caminho_208" data-name="Caminho 208" d="M458.447,152.073a63.366,63.366,0,0,0-28.211,15.417c-3.541,3.245-3.82,4.538-5.306,5.469a9.856,9.856,0,0,1-4,.688,10.321,10.321,0,0,0-2.771.163c.081-.985.175-2.215.23-3.509s.087-2.641.087-4.042-.036-2.8-.115-4.19-.189-2.684-.339-3.879a19.121,19.121,0,0,0-.6-3.041,7.816,7.816,0,0,0-.868-2.328c.987-.357,1.826.573,2.887.645a24.777,24.777,0,0,1,3.51.03,2.154,2.154,0,0,1,1.169,1.643c.437,1.839.717,9.362-.245,11.919.886-2.355,10.169-8.549,18.929-11.973a48.514,48.514,0,0,1,15.636-3.012" transform="translate(-352.262 -131)" fill="#d80232"/>
  <path id="Caminho_209" data-name="Caminho 209" d="M531.455,267.825a63.378,63.378,0,0,0-30.85-9.045c-4.8-.21-5.912.507-7.618.115a9.933,9.933,0,0,1-3.313-2.34,10.428,10.428,0,0,0-2.077-1.844c.757-.641,1.692-1.441,2.646-2.318s1.928-1.809,2.919-2.8,1.952-2,2.881-3.045,1.764-2.029,2.5-2.979a19.079,19.079,0,0,0,1.73-2.575,7.856,7.856,0,0,0,1.032-2.256c.948.444.887,1.69,1.587,2.5a24.646,24.646,0,0,1,2.458,2.5,2.14,2.14,0,0,1-.333,1.986c-.989,1.61-6.114,7.129-8.6,8.255,2.292-1.039,13.236,1.145,21.849,4.919a48.465,48.465,0,0,1,13.187,8.926" transform="translate(-411.088 -202.77)" fill="#d80232"/>
  <path id="Caminho_210" data-name="Caminho 210" d="M515.416,445.447A63.367,63.367,0,0,0,500,417.235c-3.244-3.541-4.537-3.819-5.467-5.3a9.87,9.87,0,0,1-.69-4,10.363,10.363,0,0,0-.165-2.771c.99.081,2.217.177,3.512.229s2.641.088,4.04.088,2.8-.036,4.192-.115,2.683-.189,3.876-.338a19.1,19.1,0,0,0,3.044-.6,7.787,7.787,0,0,0,2.326-.865c.356.986-.571,1.824-.645,2.888a24.679,24.679,0,0,1-.031,3.508,2.151,2.151,0,0,1-1.641,1.168c-1.839.438-9.364.716-11.918-.246,2.355.889,8.549,10.171,11.971,18.929a48.507,48.507,0,0,1,3.012,15.637" transform="translate(-416.123 -339.262)" fill="#d80232"/>
  <path id="Caminho_211" data-name="Caminho 211" d="M364.264,518.44a63.371,63.371,0,0,0,9.046-30.851c.21-4.8-.507-5.911-.114-7.619a9.884,9.884,0,0,1,2.341-3.313,10.416,10.416,0,0,0,1.843-2.076c.641.755,1.441,1.694,2.319,2.646s1.806,1.93,2.8,2.92,2,1.954,3.044,2.883,2.03,1.764,2.98,2.5a19.086,19.086,0,0,0,2.575,1.73,7.739,7.739,0,0,0,2.258,1.033c-.446.948-1.693.887-2.5,1.586a24.283,24.283,0,0,1-2.5,2.458,2.136,2.136,0,0,1-1.986-.333c-1.612-.99-7.129-6.113-8.255-8.6,1.038,2.295-1.145,13.24-4.92,21.851a48.419,48.419,0,0,1-8.927,13.188" transform="translate(-308.954 -398.074)" fill="#d80232"/>
  <path id="Caminho_212" data-name="Caminho 212" d="M124.987,502.418a69.69,69.69,0,0,0,13.178-4.884A69.631,69.631,0,0,0,153.2,487c3.542-3.246,3.821-4.539,5.307-5.469a9.855,9.855,0,0,1,4-.689,10.368,10.368,0,0,0,2.773-.164c-.081.988-.179,2.217-.231,3.508s-.089,2.644-.087,4.045.035,2.795.114,4.191.188,2.683.339,3.875a19.051,19.051,0,0,0,.6,3.042,7.729,7.729,0,0,0,.867,2.327c-.986.356-1.824-.57-2.89-.646a24.511,24.511,0,0,1-3.507-.03,2.145,2.145,0,0,1-1.167-1.641c-.44-1.84-.718-9.362.243-11.918-.886,2.357-10.169,8.551-18.928,11.97a48.437,48.437,0,0,1-15.637,3.016" transform="translate(-110.805 -403.124)" fill="#d80232"/>
  <path id="Caminho_213" data-name="Caminho 213" d="M42.476,351.27a69.553,69.553,0,0,0,12.772,5.864c3.038,1.17,10.751,2.859,18.077,3.18,4.8.21,5.911-.5,7.618-.112a9.912,9.912,0,0,1,3.316,2.336,10.273,10.273,0,0,0,2.074,1.845c-.754.641-1.693,1.441-2.645,2.319s-1.93,1.807-2.92,2.8-1.952,2-2.881,3.042-1.765,2.033-2.5,2.984a18.981,18.981,0,0,0-1.73,2.573,7.723,7.723,0,0,0-1.032,2.258c-.95-.445-.887-1.692-1.587-2.5a24.376,24.376,0,0,1-2.457-2.5,2.135,2.135,0,0,1,.334-1.986c.988-1.611,6.112-7.13,8.6-8.256-2.294,1.04-13.238-1.146-21.85-4.919a48.46,48.46,0,0,1-13.188-8.925" transform="translate(-42.476 -295.958)" fill="#d80232"/>
  <path id="Caminho_214" data-name="Caminho 214" d="M165.074,111.988a69.543,69.543,0,0,0,4.884,13.177A69.548,69.548,0,0,0,180.493,140.2c3.245,3.542,4.537,3.823,5.467,5.308a9.866,9.866,0,0,1,.689,3.995,10.367,10.367,0,0,0,.163,2.773c-.987-.08-2.216-.18-3.51-.23s-2.642-.09-4.042-.09-2.8.038-4.192.117-2.683.189-3.874.339a18.729,18.729,0,0,0-3.044.6,7.71,7.71,0,0,0-2.326.865c-.358-.985.57-1.825.644-2.889a24.632,24.632,0,0,1,.03-3.507,2.143,2.143,0,0,1,1.641-1.166c1.839-.441,9.363-.719,11.919.243-2.357-.887-8.551-10.171-11.972-18.928a48.447,48.447,0,0,1-3.014-15.636" transform="translate(-144.001 -97.805)" fill="#d80232"/>
</svg>
