<svg xmlns="http://www.w3.org/2000/svg" width="37.272" height="37.271" viewBox="0 0 37.272 37.271">
  <g id="Grupo_942" data-name="Grupo 942" transform="translate(-7237.777 12590.565)">
    <path id="Caminho_207" data-name="Caminho 207" d="M260.751,29.473a21.531,21.531,0,0,0-1.816,3.954,21.522,21.522,0,0,0-.985,5.6c-.065,1.486.157,1.83.035,2.359a3.046,3.046,0,0,1-.725,1.026,3.231,3.231,0,0,0-.57.643c-.2-.234-.447-.524-.718-.819s-.559-.6-.866-.9-.621-.6-.943-.892-.628-.546-.922-.774a5.942,5.942,0,0,0-.8-.536,2.429,2.429,0,0,0-.7-.32c.138-.293.524-.274.773-.492a7.59,7.59,0,0,1,.776-.76.663.663,0,0,1,.615.1,10.637,10.637,0,0,1,2.556,2.663c-.322-.71.355-4.1,1.524-6.766a15,15,0,0,1,2.763-4.083" transform="translate(6997.17 -12620.038)" fill="#d80232"/>
    <path id="Caminho_208" data-name="Caminho 208" d="M429.531,152.073a19.621,19.621,0,0,0-8.736,4.774c-1.1,1-1.183,1.405-1.643,1.693a3.052,3.052,0,0,1-1.237.213,3.2,3.2,0,0,0-.858.05c.025-.305.054-.686.071-1.087s.027-.818.027-1.252-.011-.867-.036-1.3-.059-.831-.1-1.2a5.921,5.921,0,0,0-.185-.942,2.42,2.42,0,0,0-.269-.721c.306-.11.565.177.894.2a7.672,7.672,0,0,1,1.087.009.667.667,0,0,1,.362.509,10.65,10.65,0,0,1-.076,3.691c.274-.729,3.149-2.647,5.861-3.707a15.023,15.023,0,0,1,4.842-.933" transform="translate(6841.127 -12736.113)" fill="#d80232"/>
    <path id="Caminho_209" data-name="Caminho 209" d="M501.178,247.746a19.625,19.625,0,0,0-9.553-2.8c-1.486-.065-1.831.157-2.359.036a3.075,3.075,0,0,1-1.026-.725,3.228,3.228,0,0,0-.643-.571c.234-.2.524-.446.819-.718s.6-.56.9-.867.6-.62.892-.943.546-.628.775-.923a5.91,5.91,0,0,0,.536-.8,2.434,2.434,0,0,0,.32-.7c.294.138.275.523.491.773a7.625,7.625,0,0,1,.761.775.663.663,0,0,1-.1.615,10.643,10.643,0,0,1-2.663,2.556c.71-.322,4.1.354,6.766,1.523a15.007,15.007,0,0,1,4.083,2.764" transform="translate(6773.872 -12818.167)" fill="#d80232"/>
    <path id="Caminho_210" data-name="Caminho 210" d="M500.408,416.532a19.622,19.622,0,0,0-4.774-8.736c-1-1.1-1.4-1.183-1.693-1.642a3.057,3.057,0,0,1-.214-1.238,3.208,3.208,0,0,0-.051-.858c.306.025.686.055,1.088.071s.818.027,1.251.027.867-.011,1.3-.035.831-.059,1.2-.1a5.918,5.918,0,0,0,.943-.185,2.41,2.41,0,0,0,.72-.268c.11.305-.177.565-.2.894a7.642,7.642,0,0,1-.01,1.086.666.666,0,0,1-.508.362,10.644,10.644,0,0,1-3.69-.076c.729.275,2.647,3.15,3.707,5.861a15.02,15.02,0,0,1,.933,4.842" transform="translate(6768.115 -12974.217)" fill="#d80232"/>
    <path id="Caminho_211" data-name="Caminho 211" d="M364.264,488.162a19.623,19.623,0,0,0,2.8-9.553c.065-1.486-.157-1.83-.035-2.359a3.061,3.061,0,0,1,.725-1.026,3.226,3.226,0,0,0,.571-.643c.2.234.446.524.718.819s.559.6.866.9.62.6.942.893.629.546.923.774a5.909,5.909,0,0,0,.8.536,2.4,2.4,0,0,0,.7.32c-.138.294-.524.275-.773.491a7.513,7.513,0,0,1-.775.761.661.661,0,0,1-.615-.1,10.626,10.626,0,0,1-2.556-2.664c.321.711-.355,4.1-1.523,6.766a14.993,14.993,0,0,1-2.764,4.084" transform="translate(6890.64 -13041.456)" fill="#d80232"/>
    <path id="Caminho_212" data-name="Caminho 212" d="M124.987,487.411a19.632,19.632,0,0,0,8.735-4.774c1.1-1.005,1.183-1.406,1.643-1.694a3.052,3.052,0,0,1,1.237-.213,3.208,3.208,0,0,0,.859-.051c-.025.306-.055.686-.072,1.086s-.027.819-.027,1.253.011.865.035,1.3.058.831.105,1.2a5.9,5.9,0,0,0,.185.942,2.394,2.394,0,0,0,.268.721c-.305.11-.565-.177-.895-.2a7.587,7.587,0,0,1-1.086-.009.664.664,0,0,1-.361-.508,10.637,10.637,0,0,1,.075-3.691c-.274.73-3.149,2.648-5.861,3.707a15,15,0,0,1-4.842.934" transform="translate(7117.182 -13047.229)" fill="#d80232"/>
    <path id="Caminho_213" data-name="Caminho 213" d="M42.476,351.27a19.64,19.64,0,0,0,9.553,2.8c1.486.065,1.83-.156,2.359-.035a3.069,3.069,0,0,1,1.027.723,3.182,3.182,0,0,0,.642.571c-.233.2-.524.446-.819.718s-.6.56-.9.866-.6.62-.892.942-.547.629-.775.924a5.877,5.877,0,0,0-.536.8,2.392,2.392,0,0,0-.32.7c-.294-.138-.275-.524-.491-.774a7.55,7.55,0,0,1-.761-.774.661.661,0,0,1,.1-.615,10.615,10.615,0,0,1,2.663-2.556c-.71.322-4.1-.355-6.766-1.523a15.006,15.006,0,0,1-4.084-2.763" transform="translate(7195.301 -12924.708)" fill="#d80232"/>
    <path id="Caminho_214" data-name="Caminho 214" d="M165.074,111.988a19.628,19.628,0,0,0,4.774,8.735c1,1.1,1.4,1.184,1.693,1.644a3.055,3.055,0,0,1,.213,1.237,3.21,3.21,0,0,0,.051.859c-.306-.025-.686-.056-1.087-.071s-.818-.028-1.251-.028-.867.012-1.3.036-.831.058-1.2.105a5.8,5.8,0,0,0-.942.185,2.388,2.388,0,0,0-.72.268c-.111-.305.176-.565.2-.895a7.633,7.633,0,0,1,.009-1.086.664.664,0,0,1,.508-.361,10.626,10.626,0,0,1,3.691.075c-.73-.275-2.648-3.149-3.707-5.861a15,15,0,0,1-.933-4.842" transform="translate(7079.229 -12698.161)" fill="#d80232"/>
  </g>
</svg>
