<svg xmlns="http://www.w3.org/2000/svg" width="19" height="15.084" viewBox="0 0 19 15.084">
  <path id="iconmonstr-medium-1" d="M2.253,6.077a.735.735,0,0,0-.24-.621L.24,3.319V3H5.748l4.258,9.338L13.749,3H19v.319L17.483,4.773a.444.444,0,0,0-.169.426V15.885a.444.444,0,0,0,.169.425l1.481,1.454v.319H11.513v-.319l1.535-1.49c.15-.15.15-.195.15-.425V7.212L8.932,18.049H8.356L3.388,7.212v7.263a1,1,0,0,0,.275.833l2,2.421v.32H0v-.32l2-2.421a.965.965,0,0,0,.257-.833v-8.4Z" transform="translate(0 -3)" fill="#2b2d42" fill-rule="evenodd"/>
</svg>
