<?xml version="1.0" encoding="utf-8"?>
<!-- Generator: Adobe Illustrator 24.0.2, SVG Export Plug-In . SVG Version: 6.00 Build 0)  -->
<svg version="1.1" xmlns="http://www.w3.org/2000/svg" xmlns:xlink="http://www.w3.org/1999/xlink" x="0px" y="0px"
	 viewBox="0 0 488 390.3" style="enable-background:new 0 0 488 390.3;" xml:space="preserve">
<style type="text/css">
	.st0{fill:#EDF2F4;}
	.st1{fill:#D6D6E3;}
	.st2{fill:none;stroke:#FFFFFF;stroke-width:0.75;stroke-miterlimit:10;}
	.st3{fill:#FFFFFF;stroke:#FFFFFF;stroke-width:0.75;stroke-miterlimit:10;}
	.st4{fill:none;stroke:#231F20;stroke-miterlimit:10;}
	.st5{fill:#8D99AE;}
	.st6{fill:#FFFFFF;}
	.st7{fill:#D80232;}
	.st8{fill:none;stroke:#000000;stroke-miterlimit:10;}
	.st9{fill:#FFFFFF;stroke:#8D99AE;stroke-miterlimit:10;}
	.st10{fill:none;stroke:#231F20;stroke-width:0.913;stroke-miterlimit:10;}
	.st11{fill:none;stroke:#FFFFFF;stroke-width:0.913;stroke-miterlimit:10;}
	.st12{fill:#CAE3FF;}
</style>
<g id="Layer_2">
	<g id="Rectangle_1252">
		<rect id="Rectangle_1298" x="0.8" y="0.5" class="st0" width="487.2" height="389"/>
	</g>
</g>
<g id="Layer_1">
	<g id="Group_568_1_" transform="translate(6951 -4197)">
		<g id="Group_567_1_" transform="translate(-7269.681 3830.214)">
			<g id="Group_558_1_">
				<rect id="Rectangle_1299_1_" x="680.6" y="437.4" class="st1" width="35.5" height="255.9"/>
				<rect id="Rectangle_1300_1_" x="626" y="518.9" class="st1" width="35.5" height="174.3"/>
				<rect id="Rectangle_1301_1_" x="571.5" y="476.9" class="st1" width="35.5" height="216.3"/>
				<rect id="Rectangle_1302_1_" x="516.8" y="565.1" class="st1" width="35.5" height="128"/>
				<rect id="Rectangle_1303_1_" x="462.3" y="499" class="st1" width="35.5" height="194.1"/>
				<rect id="Rectangle_1304_1_" x="407.6" y="629" class="st1" width="35.5" height="64"/>
				<path id="Path_2230_1_" class="st2" d="M698.5,437.4l-54.7,83.3l-54.5-43.8l-55,90l-54.2-69l-56.6,132.5"/>
				<circle id="Ellipse_761_1_" class="st3" cx="697.8" cy="438" r="4.9"/>
				<circle id="Ellipse_762_1_" class="st3" cx="643.8" cy="518.9" r="4.9"/>
				<circle id="Ellipse_763_1_" class="st3" cx="589.3" cy="476.9" r="4.9"/>
				<circle id="Ellipse_764_1_" class="st3" cx="534.6" cy="565.2" r="4.9"/>
				<circle id="Ellipse_765_1_" class="st3" cx="479.9" cy="499" r="4.9"/>
				<circle id="Ellipse_766_1_" class="st3" cx="423.6" cy="629.1" r="4.9"/>
			</g>
			<g id="Group_560_1_">
				<path id="Path_2231_1_" class="st4" d="M644.9,497.6v155.5H519.6"/>
				<g id="Group_559_1_">
					<rect id="Rectangle_1305_1_" x="519.3" y="495.9" class="st5" width="125.3" height="156.9"/>
					<rect id="Rectangle_1306_1_" x="564.5" y="532.7" class="st6" width="69.3" height="10.2"/>
					<rect id="Rectangle_1307_1_" x="564.5" y="552.4" class="st6" width="69.3" height="10.2"/>
					<rect id="Rectangle_1308_1_" x="564.5" y="571.8" class="st6" width="69.3" height="10.2"/>
					<rect id="Rectangle_1309_1_" x="564.5" y="592" class="st6" width="69.3" height="10.2"/>
					<rect id="Rectangle_1310_1_" x="564.5" y="611.8" class="st6" width="69.3" height="10.2"/>
					<rect id="Rectangle_1311_1_" x="532.5" y="631.2" class="st6" width="101.3" height="10.2"/>
					<rect id="Rectangle_1312_1_" x="564.5" y="512.5" class="st6" width="69.3" height="10.2"/>
					<rect id="Rectangle_1313_1_" x="490.5" y="469.8" class="st6" width="129.7" height="156.9"/>
					<rect id="Rectangle_1314_1_" x="490.5" y="469.8" class="st7" width="129.7" height="15.5"/>
					<path id="Path_2232_1_" class="st8" d="M620.2,469.8v156.9H490.5"/>
					<rect id="Rectangle_1315_1_" x="532.5" y="592.8" class="st1" width="69.3" height="10.2"/>
					<circle id="Ellipse_767_1_" class="st7" cx="514.2" cy="598" r="7.9"/>
					<path id="Path_2233_1_" class="st4" d="M601.7,496.1v88.2h-88.2"/>
					<rect id="Rectangle_1316_1_" x="512.1" y="495.3" class="st9" width="88.2" height="88.2"/>
					<rect id="Rectangle_1317_1_" x="533.9" y="519" class="st1" width="6.5" height="6"/>
					<line id="Line_300_1_" class="st10" x1="533.9" y1="525" x2="533.9" y2="519"/>
					<rect id="Rectangle_1318_1_" x="531.5" y="524.7" class="st1" width="11.3" height="7.3"/>
					<path id="Path_2234_1_" class="st10" d="M531.5,532v-7.3h11.3"/>
					<rect id="Rectangle_1319_1_" x="528.1" y="529.5" class="st1" width="18.1" height="41.9"/>
					<path id="Path_2235_1_" class="st1" d="M568.6,571.4h-10.4v-30.7l10.4-2.4V571.4z"/>
					<path id="Path_2236_1_" class="st1" d="M567.2,545.5h-7.7v-8l7.7-1.8V545.5z"/>
					<rect id="Rectangle_1320_1_" x="567.2" y="552.2" class="st1" width="6.2" height="19.2"/>
					<rect id="Rectangle_1321_1_" x="548.5" y="545.9" class="st1" width="8.5" height="25.6"/>
					<rect id="Rectangle_1322_1_" x="573.4" y="544.1" class="st1" width="12" height="27.3"/>
					<rect id="Rectangle_1323_1_" x="576.6" y="542.3" class="st1" width="5.9" height="7.3"/>
					<path id="Path_2237_1_" class="st1" d="M590.8,571.4h-12v-19.2l12,4.4V571.4z"/>
					<path id="Path_2238_1_" class="st10" d="M528.1,553.4v-23.9h18.1"/>
					<line id="Line_301_1_" class="st10" x1="548.5" y1="545.9" x2="548.5" y2="553.4"/>
					<line id="Line_302_1_" class="st10" x1="559.5" y1="537.5" x2="559.5" y2="542.6"/>
					<line id="Line_303_1_" class="st10" x1="573.4" y1="544.1" x2="573.4" y2="557.5"/>
					<line id="Line_304_1_" class="st11" x1="533.9" y1="533.7" x2="547" y2="533.7"/>
					<line id="Line_305_1_" class="st11" x1="534" y1="536.2" x2="547" y2="536.2"/>
					<line id="Line_306_1_" class="st11" x1="534" y1="538.7" x2="547.1" y2="538.7"/>
					<line id="Line_307_1_" class="st11" x1="534.1" y1="541.2" x2="547.1" y2="541.2"/>
					<line id="Line_308_1_" class="st11" x1="534.1" y1="543.7" x2="547.2" y2="543.7"/>
					<line id="Line_309_1_" class="st11" x1="534.2" y1="546.2" x2="547.2" y2="546.2"/>
					<line id="Line_310_1_" class="st11" x1="534.2" y1="548.8" x2="547.2" y2="548.8"/>
					<line id="Line_311_1_" class="st11" x1="534.3" y1="551.3" x2="547.3" y2="551.3"/>
					<line id="Line_312_1_" class="st11" x1="534.3" y1="553.8" x2="547.3" y2="553.8"/>
					<rect id="Rectangle_1324_1_" x="545.3" y="562.5" class="st12" width="1.7" height="1.7"/>
					<rect id="Rectangle_1325_1_" x="551.1" y="562.5" class="st12" width="1.7" height="1.7"/>
					<rect id="Rectangle_1326_1_" x="556.8" y="562.5" class="st12" width="1.7" height="1.7"/>
					<rect id="Rectangle_1327_1_" x="562.6" y="562.6" class="st12" width="1.7" height="1.7"/>
					<rect id="Rectangle_1328_1_" x="575.3" y="561.7" class="st12" width="1.7" height="1.7"/>
					<rect id="Rectangle_1329_1_" x="529.8" y="550" class="st12" width="1.7" height="1.7"/>
					<rect id="Rectangle_1330_1_" x="525.4" y="557.8" class="st12" width="1.7" height="1.7"/>
					<path id="Path_2239_1_" class="st1" d="M585.9,532h-11.2l0.5-0.9h0.5l0.8-1.2l1.9,0.3l0.4-1.3l1.6,0.3l0.2-1h2.8l0.8,1.8h0.8
						L585.9,532z"/>
					<line id="Line_313_1_" class="st10" x1="586.4" y1="532" x2="573.6" y2="532"/>
					<path id="Path_2240_1_" class="st1" d="M543.1,512.5h-4.6l0.6-1.2h1.4l0.3-1h1.6L543.1,512.5z"/>
					<line id="Line_314_1_" class="st10" x1="543.7" y1="512.5" x2="537.1" y2="512.5"/>
					<path id="Path_2241_1_" class="st5" d="M590.8,565.8v2.8h-2.3v-7.2h-4.8v-9.2h-3.3v4.6l-7.8,3.5v6h-2.4v-4l-6.9-9.1h-15.8
						l-6.6,9.7v1.6H539v-9.8h-3.8v9.8h-1.9v-24.1l-10.5,9.4v16.9h-2.7v-5.3h-3.8v9.8h6.5v0.1h8v0.1h39.5v-0.1h24.1v-5.5L590.8,565.8
						z"/>
					<line id="Line_315_1_" class="st10" x1="513.2" y1="571.5" x2="599.2" y2="571.5"/>
				</g>
			</g>
		</g>
	</g>
</g>
</svg>
